<?xml version="1.0" encoding="utf-8"?>
<!-- Generator: Adobe Illustrator 25.4.1, SVG Export Plug-In . SVG Version: 6.00 Build 0)  -->
<svg version="1.1" id="Lager_1" xmlns="http://www.w3.org/2000/svg" xmlns:xlink="http://www.w3.org/1999/xlink" x="0px" y="0px"
	 viewBox="0 0 1600 1200" style="enable-background:new 0 0 1600 1200;" xml:space="preserve">
<style type="text/css">
	.st0{fill:none;stroke:#DBDBDB;stroke-width:13;stroke-linecap:round;stroke-linejoin:round;}
	.st1{fill:none;stroke:#D6D6D6;stroke-width:13;stroke-linecap:round;stroke-linejoin:round;}
	.st2{fill:none;stroke:#FFB017;stroke-width:13;stroke-linecap:round;stroke-linejoin:round;}
	.st3{fill:none;stroke:#F4F4F4;stroke-width:13;stroke-linecap:round;stroke-linejoin:round;}
	.st4{fill:none;stroke:#565656;stroke-width:13;stroke-linecap:round;stroke-linejoin:round;}
	.st5{fill:none;stroke:#605DF2;stroke-width:13;stroke-linecap:round;stroke-linejoin:round;}
	.st6{fill:none;stroke:#FFD369;stroke-width:13;stroke-linecap:round;stroke-linejoin:round;}
	.st7{fill:none;stroke:#44AB96;stroke-width:13;stroke-linecap:round;stroke-linejoin:round;}
</style>
<desc>Created with Sketch.</desc>
<g id="Patterns">
	<g id="Taieri">
		<g id="Shape" transform="translate(0.000000, -106.000000)">
			<path class="st0" d="M1673.5,1042c0,32-25.7,58-57.5,58s-57.5-26-57.5-58"/>
			<path class="st1" d="M1673.5,198c-39.8,0-72-32.5-72-72.5s32.2-72.5,72-72.5"/>
			<path class="st0" d="M635.5,111.9c0,33.2,26.9,60.1,60,60.1s60-26.9,60-60.1V44"/>
			<path class="st2" d="M331.2,138.7"/>
			<path class="st3" d="M1673.5,505V336.7c0-33-26.9-59.7-60-59.7s-60,26.7-60,59.7v26.1"/>
			<path class="st1" d="M463.3,631v64.3c0,78.3,63.4,141.8,141.6,141.8h56.4c47.1,0,85.2,38.2,85.2,85.3"/>
			<circle class="st4" cx="661.5" cy="436" r="40"/>
			<path class="st1" d="M401.5,1087.5c0-32.3,8.3-62.5,22.7-88.1 M660.5,918H555.7c-33.5,0-64.6,11.6-89.8,31.3"/>
			<path class="st0" d="M402,457c-31.8,0-57.5,25.7-57.5,57.5S370.2,572,402,572s57.5-25.7,57.5-57.5V457"/>
			<path class="st0" d="M1535.5,913c0,33.7,26.9,61,60,61s60-27.3,60-61s-26.9-61-60-61h-201"/>
			<path class="st5" d="M1039.5,182.8c-35.3,0-64,28.3-64,63.1s28.7,63.1,64,63.1c35.3,0,64-28.3,64-63.1V43"/>
			<path class="st3" d="M196.4,349.7c0-32,25.8-58,57.5-58c31.8,0,57.5,26,57.5,58s-25.8,58-57.5,58"/>
			<path class="st1" d="M1163,605.6c31.8,0,57.5,25.6,57.5,57.2S1194.8,720,1163,720s-57.5-25.6-57.5-57.2V449"/>
			<path class="st3" d="M762.2,437c0-56.9-45.4-103-101.4-103s-101.4,46.1-101.4,103s45.4,103,101.4,103h265.6"/>
			<path class="st0" d="M1572.1,770c56,0,101.4-46.1,101.4-103s-45.4-103-101.4-103h-265.6"/>
			<path class="st1" d="M1180.5,218.5c0-53.3,42.7-96.5,95.5-96.5h98.1c52.7,0,95.5,43.2,95.5,96.5l0,0c0,53.3-42.7,96.5-95.5,96.5
				H1276C1223.2,315,1180.5,271.8,1180.5,218.5L1180.5,218.5z"/>
			<path class="st3" d="M340,626L340,626c32.9,0,59.5,26.6,59.5,59.4v169.2c0,32.8-26.6,59.4-59.5,59.4l0,0"/>
			<path class="st4" d="M901.5,838.5v-89.3c0-25.5,20.8-46.2,46.5-46.2l0,0c25.7,0,46.5,20.7,46.5,46.2v178.7
				c0,25.5-20.8,46.2-46.5,46.2l0,0l0,0c-25.7,0-46.5-20.7-46.5-46.2v-21.6"/>
			<path class="st3" d="M987.5,360.9v7.8c0,44.3-36,80.3-80.5,80.3l0,0c-44.5,0-80.5-35.9-80.5-80.3V124.3c0-44.3,36-80.3,80.5-80.3
				l0,0c44.5,0,80.5,35.9,80.5,80.3v2.4"/>
			<path class="st6" d="M345.5,1057L345.5,1057"/>
			<path class="st0" d="M824.5,703v231.6c0,69.2,56.6,125.4,126.5,125.4s126.5-56.1,126.5-125.4v-54.7"/>
			<path class="st5" d="M659.5,744h-49.2c-33,0-59.8-26.9-59.8-60s26.8-60,59.8-60h98.4c33,0,59.8,26.9,59.8,60v5.3
				c0,30.2-24.4,54.7-54.5,54.7"/>
			<path class="st0" d="M1163,515h56.2c37.7,0,68.3-28.9,68.3-64.5s-30.6-64.5-68.3-64.5h-112.4c-37.7,0-68.3,28.9-68.3,64.5"/>
			<path class="st1" d="M748.5,246H613.8"/>
			<path class="st4" d="M1465.5,1161V935"/>
			<path class="st0" d="M300.5,239.7c0-58.5,46.8-106,104.6-106h51.1"/>
			<path class="st5" d="M820.5,624h98.4c66.1,0,119.6-53.7,119.6-120"/>
			<path class="st5" d="M1394.5,937v53.8c0,54.3-44,98.2-98.3,98.2h-76.7"/>
			<path class="st1" d="M1580.5,669h-84c-60.8,0-110,49.7-110,111"/>
			<path class="st7" d="M118,553"/>
			<path class="st0" d="M1162,792c0,7.7,0,104.5,0,152"/>
			<path class="st0" d="M216,157.7c0,3.1,0,42.6,0,62"/>
			<path class="st3" d="M1306.5,630v142.3c0,22.4-18.3,40.5-40.9,40.5s-40.9,18.2-40.9,40.6v8.4c0,22.4,18.3,40.6,40.9,40.6
				s40.9,18.2,40.9,40.6v9.3c0,27.5-22.5,49.9-50.2,49.9h-26h-38.1 M1027.5,1135h26.8c55.3,0,100.2-44.8,100.2-100.1"/>
			<path class="st4" d="M1554.5,432.9v20.3c0,28.6-23.3,51.8-51.9,51.8l0,0c-28.7,0-52-23.2-52-51.8v-16.8
				c0-28.4-23.1-51.4-51.5-51.4l0,0c-28.5,0-51.6,23-51.6,51.4v20.7"/>
			<path class="st5" d="M370.5,281.7c0-40.3,32.7-73,73-73l0,0c40.3,0,73,32.7,73,73v53.1c0,40.3-32.7,73-73,73l0,0
				c-40.3,0-73-32.7-73-73V281.7z"/>
		</g>
	</g>
</g>
<path class="st3" d="M788.1,1068.4v-372"/>
</svg>
